<svg id="Слой_1" data-name="Слой 1" xmlns="http://www.w3.org/2000/svg" viewBox="0 0 511.83 442.21">
	<defs>
		<style>.heart_icon{fill:transparent;}</style>
	</defs>
	<path class="heart_icon"
		d="M44.06,254.46A124.22,124.22,0,1,1,219.74,78.78l36.35,36.36,36.34-36.36A124.22,124.22,0,1,1,468.11,254.46l-31,31.06-181,181Z"
		transform="translate(-0.17 -34.89)" />
	<path
		d="M131.91,49.89a116,116,0,0,1,82.53,34.2l31.05,31.05,10.61,10.61,10.6-10.62,31-31A116.73,116.73,0,1,1,462.81,249.16l-31,31L256.09,455.89,80.41,280.21l-31-31A116.74,116.74,0,0,1,131.91,49.89m0-15A131.74,131.74,0,0,0,38.75,259.77L69.8,290.82,256.09,477.11,442.38,290.82l31-31.05A131.72,131.72,0,1,0,287.13,73.48l-31,31.05-31-31a131.37,131.37,0,0,0-93.13-38.59Z"
		transform="translate(-0.17 -34.89)" />
</svg>